<mxfile host="app.diagrams.net" modified="2023-03-25T22:51:55.780Z" agent="Mozilla/5.0 (Windows NT 10.0; Win64; x64) AppleWebKit/537.36 (KHTML, like Gecko) Chrome/111.0.0.0 Safari/537.36" etag="BUdZ4rPS5IxSaubsnN-5" version="21.1.1" type="github">
  <diagram name="Page-1" id="Md1XfoCHPWVKmQeKjyJF">
    <mxGraphModel dx="1434" dy="764" grid="1" gridSize="10" guides="1" tooltips="1" connect="1" arrows="1" fold="1" page="1" pageScale="1" pageWidth="1169" pageHeight="827" math="0" shadow="0">
      <root>
        <mxCell id="0" />
        <mxCell id="1" parent="0" />
        <mxCell id="LFSHSum3NxTRu7bV9SE1-1" value="" style="whiteSpace=wrap;html=1;aspect=fixed;rounded=0;shadow=0;glass=0;" vertex="1" parent="1">
          <mxGeometry x="20" y="20" width="80" height="80" as="geometry" />
        </mxCell>
        <mxCell id="LFSHSum3NxTRu7bV9SE1-2" value="" style="whiteSpace=wrap;html=1;aspect=fixed;" vertex="1" parent="1">
          <mxGeometry x="20" y="100" width="80" height="80" as="geometry" />
        </mxCell>
        <mxCell id="LFSHSum3NxTRu7bV9SE1-3" value="" style="whiteSpace=wrap;html=1;aspect=fixed;" vertex="1" parent="1">
          <mxGeometry x="100" y="20" width="80" height="80" as="geometry" />
        </mxCell>
        <mxCell id="LFSHSum3NxTRu7bV9SE1-4" value="" style="whiteSpace=wrap;html=1;aspect=fixed;" vertex="1" parent="1">
          <mxGeometry x="100" y="100" width="80" height="80" as="geometry" />
        </mxCell>
        <mxCell id="LFSHSum3NxTRu7bV9SE1-5" value="" style="whiteSpace=wrap;html=1;aspect=fixed;" vertex="1" parent="1">
          <mxGeometry x="20" y="180" width="80" height="80" as="geometry" />
        </mxCell>
        <mxCell id="LFSHSum3NxTRu7bV9SE1-6" value="" style="whiteSpace=wrap;html=1;aspect=fixed;" vertex="1" parent="1">
          <mxGeometry x="20" y="260" width="80" height="80" as="geometry" />
        </mxCell>
        <mxCell id="LFSHSum3NxTRu7bV9SE1-7" value="" style="whiteSpace=wrap;html=1;aspect=fixed;" vertex="1" parent="1">
          <mxGeometry x="100" y="180" width="80" height="80" as="geometry" />
        </mxCell>
        <mxCell id="LFSHSum3NxTRu7bV9SE1-8" value="" style="whiteSpace=wrap;html=1;aspect=fixed;" vertex="1" parent="1">
          <mxGeometry x="100" y="260" width="80" height="80" as="geometry" />
        </mxCell>
        <mxCell id="LFSHSum3NxTRu7bV9SE1-9" value="" style="whiteSpace=wrap;html=1;aspect=fixed;" vertex="1" parent="1">
          <mxGeometry x="180" y="20" width="80" height="80" as="geometry" />
        </mxCell>
        <mxCell id="LFSHSum3NxTRu7bV9SE1-10" value="" style="whiteSpace=wrap;html=1;aspect=fixed;" vertex="1" parent="1">
          <mxGeometry x="180" y="100" width="80" height="80" as="geometry" />
        </mxCell>
        <mxCell id="LFSHSum3NxTRu7bV9SE1-11" value="" style="whiteSpace=wrap;html=1;aspect=fixed;" vertex="1" parent="1">
          <mxGeometry x="260" y="20" width="80" height="80" as="geometry" />
        </mxCell>
        <mxCell id="LFSHSum3NxTRu7bV9SE1-12" value="" style="whiteSpace=wrap;html=1;aspect=fixed;" vertex="1" parent="1">
          <mxGeometry x="260" y="100" width="80" height="80" as="geometry" />
        </mxCell>
        <mxCell id="LFSHSum3NxTRu7bV9SE1-13" value="" style="whiteSpace=wrap;html=1;aspect=fixed;" vertex="1" parent="1">
          <mxGeometry x="180" y="180" width="80" height="80" as="geometry" />
        </mxCell>
        <mxCell id="LFSHSum3NxTRu7bV9SE1-14" value="" style="whiteSpace=wrap;html=1;aspect=fixed;" vertex="1" parent="1">
          <mxGeometry x="180" y="260" width="80" height="80" as="geometry" />
        </mxCell>
        <mxCell id="LFSHSum3NxTRu7bV9SE1-15" value="" style="whiteSpace=wrap;html=1;aspect=fixed;" vertex="1" parent="1">
          <mxGeometry x="260" y="180" width="80" height="80" as="geometry" />
        </mxCell>
        <mxCell id="LFSHSum3NxTRu7bV9SE1-16" value="" style="whiteSpace=wrap;html=1;aspect=fixed;" vertex="1" parent="1">
          <mxGeometry x="260" y="260" width="80" height="80" as="geometry" />
        </mxCell>
        <mxCell id="LFSHSum3NxTRu7bV9SE1-17" value="" style="whiteSpace=wrap;html=1;aspect=fixed;" vertex="1" parent="1">
          <mxGeometry x="340" y="20" width="80" height="80" as="geometry" />
        </mxCell>
        <mxCell id="LFSHSum3NxTRu7bV9SE1-18" value="" style="whiteSpace=wrap;html=1;aspect=fixed;" vertex="1" parent="1">
          <mxGeometry x="340" y="100" width="80" height="80" as="geometry" />
        </mxCell>
        <mxCell id="LFSHSum3NxTRu7bV9SE1-19" value="" style="whiteSpace=wrap;html=1;aspect=fixed;" vertex="1" parent="1">
          <mxGeometry x="340" y="180" width="80" height="80" as="geometry" />
        </mxCell>
        <mxCell id="LFSHSum3NxTRu7bV9SE1-20" value="" style="whiteSpace=wrap;html=1;aspect=fixed;" vertex="1" parent="1">
          <mxGeometry x="340" y="260" width="80" height="80" as="geometry" />
        </mxCell>
        <mxCell id="LFSHSum3NxTRu7bV9SE1-21" value="" style="whiteSpace=wrap;html=1;aspect=fixed;" vertex="1" parent="1">
          <mxGeometry x="20" y="340" width="80" height="80" as="geometry" />
        </mxCell>
        <mxCell id="LFSHSum3NxTRu7bV9SE1-22" value="" style="whiteSpace=wrap;html=1;aspect=fixed;" vertex="1" parent="1">
          <mxGeometry x="100" y="340" width="80" height="80" as="geometry" />
        </mxCell>
        <mxCell id="LFSHSum3NxTRu7bV9SE1-23" value="" style="whiteSpace=wrap;html=1;aspect=fixed;" vertex="1" parent="1">
          <mxGeometry x="180" y="340" width="80" height="80" as="geometry" />
        </mxCell>
        <mxCell id="LFSHSum3NxTRu7bV9SE1-24" value="" style="whiteSpace=wrap;html=1;aspect=fixed;" vertex="1" parent="1">
          <mxGeometry x="260" y="340" width="80" height="80" as="geometry" />
        </mxCell>
        <mxCell id="LFSHSum3NxTRu7bV9SE1-25" value="" style="whiteSpace=wrap;html=1;aspect=fixed;" vertex="1" parent="1">
          <mxGeometry x="340" y="340" width="80" height="80" as="geometry" />
        </mxCell>
        <mxCell id="LFSHSum3NxTRu7bV9SE1-26" value="" style="endArrow=none;html=1;rounded=0;entryX=1;entryY=0;entryDx=0;entryDy=0;" edge="1" parent="1" target="LFSHSum3NxTRu7bV9SE1-1">
          <mxGeometry width="50" height="50" relative="1" as="geometry">
            <mxPoint x="20" y="100" as="sourcePoint" />
            <mxPoint x="70" y="50" as="targetPoint" />
          </mxGeometry>
        </mxCell>
        <mxCell id="LFSHSum3NxTRu7bV9SE1-27" value="" style="whiteSpace=wrap;html=1;aspect=fixed;rounded=0;shadow=0;glass=0;" vertex="1" parent="1">
          <mxGeometry x="470" y="20" width="80" height="80" as="geometry" />
        </mxCell>
        <mxCell id="LFSHSum3NxTRu7bV9SE1-28" value="" style="endArrow=none;html=1;rounded=0;entryX=1;entryY=0;entryDx=0;entryDy=0;" edge="1" parent="1" target="LFSHSum3NxTRu7bV9SE1-27">
          <mxGeometry width="50" height="50" relative="1" as="geometry">
            <mxPoint x="470" y="100" as="sourcePoint" />
            <mxPoint x="520" y="50" as="targetPoint" />
          </mxGeometry>
        </mxCell>
      </root>
    </mxGraphModel>
  </diagram>
</mxfile>
